<?xml version="1.0" encoding="utf-8"?>
<!-- Generator: Adobe Illustrator 21.0.0, SVG Export Plug-In . SVG Version: 6.00 Build 0)  -->
<svg version="1.1" id="Layer_1" xmlns="http://www.w3.org/2000/svg" xmlns:xlink="http://www.w3.org/1999/xlink" x="0px" y="0px"
	 viewBox="0 0 841.9 1190.6" style="enable-background:new 0 0 841.9 1190.6;" xml:space="preserve">
<style type="text/css">
	.st0{fill:#151212;}
	.st1{fill:#C9C9C8;}
	.st2{fill:#F7F0EE;}
	.st3{fill:#747474;}
	.st4{fill:#EF3F24;}
	.st5{fill:#767576;}
	.st6{fill:#F7F7F7;}
	.st7{fill:#060D0E;}
	.st8{fill:#181919;}
	.st9{fill:#49C1E4;}
	.st10{fill:#49C1E5;}
</style>
<g>
	<path class="st0" d="M204.1,241.8c-5.7,0-11.3,0-17,0c-0.7-0.4-1.3-0.9-2.1-1.1c-23-6.5-36.3-23-37.9-46.9c-0.1-1.4-0.9-3.1-2-4.1
		c-3.8-3.5-5.5-7.8-5.4-12.9c0.1-9.5,0.1-19-0.1-28.5c0-2.2-0.7-4.5-1.8-6.5c-2.9-5.4-2.5-11.4,1.4-15.8c3.7-4.1,9.6-5.7,14.5-3.7
		c5.6,2.2,8.9,7.6,8.5,13.8c-0.1,1.2-0.2,2.3-0.3,3.5c-0.2,0.2-0.4,0.4-0.7,0.6c0.4,0,0.8,0,1.2,0c6.1-1.2,12.2-3.1,18.3-3.4
		c10.3-0.6,20.6-0.6,30.9,0c6,0.3,11.9,2.2,17.8,3.4c0.4,0,0.8,0,1.2,0.1c-0.2-0.2-0.4-0.4-0.7-0.6c-0.1-1-0.2-2-0.2-3
		c-0.8-9.4,5.9-16,15.2-14.9c5.6,0.6,8.3,4.7,11,9c0,2.7,0,5.3,0,8c-3.1,3.8-3.9,8.1-3.7,13c0.3,8.5,0,17,0.1,25.5
		c0,5-1.8,9-5.3,12.5c-1.2,1.2-2,3.3-2.1,5c-1,21.2-15,39.2-35.5,45.3C207.7,240.6,205.9,241.2,204.1,241.8z M188.6,144.8
		c-3.9,0-7.7,0-11.6,0c-9-0.4-15,4.5-19.7,11.5c-2-6.5-5.5-12.7-3.3-20c0.5-1.6-0.9-4.9-2.4-5.7s-5.1-0.3-6.1,0.9
		c-1.2,1.5-0.9,4.5-0.6,6.7c0.4,2.6,2.1,5.1,2.2,7.6c0.3,10,0.1,19.9,0.1,29.9c0,4.9,1.3,9,7.1,9.6c0.3,3.1,0.7,6.2,1,9.4
		c-1,11.3,7.5,26.8,17.3,31.5c0.9,0.9,1.7,2,2.8,2.6c9.4,5.4,19.5,7.1,29.8,4.2c4.9-1.4,9.4-4.5,14-6.8c9.7-4.6,18.2-20.2,17.3-31.5
		c0.3-3.1,0.7-6.2,1-9.4c5.5-1.4,7.1-3.4,7.1-9.6c0.1-10-0.1-19.9,0.1-29.9c0.1-2.6,1.8-5,2.2-7.6c0.3-2.2,0.6-5.2-0.6-6.7
		c-1-1.2-4.6-1.7-6.1-0.9s-2.9,4.1-2.4,5.7c2.2,7.3-1.2,13.5-3.3,20c-4.7-7-10.7-11.9-19.7-11.5c-3.9,0-7.8,0-11.7,0
		C198.5,144.7,193.6,144.7,188.6,144.8z"/>
	<path class="st1" d="M155.4,194.6c-0.3-3.1-0.7-6.2-1-9.4c0.1-3.5,0.1-7,0.5-10.4c0.7-6.2,1.6-12.4,2.4-18.6
		c4.7-7,10.7-11.9,19.7-11.5c0,8.5,0.1,17.1,0.1,25.6c-2.8,0.1-5.6,0.2-8.5,0.2c-4.1,0-6.3,2.1-6.4,6c-0.2,4.8-0.2,9.6,0,14.5
		c0.2,3.6,2.3,5.8,6.1,5.8c18.5,0,36.9,0,55.4,0c3.8,0,5.9-2.2,6.1-5.8c0.2-4.8,0.2-9.6,0-14.5c-0.1-4-2.4-6-6.4-6
		c-2.8,0-5.6-0.1-8.5-0.2c0-8.5,0-17.1,0.1-25.6c9-0.4,15,4.5,19.7,11.5c0.8,4,2,8,2.4,12.1c0.5,5.6,0.4,11.3,0.5,16.9
		c-0.3,3.1-0.7,6.2-1,9.4c-3.1,2.7-6,5.7-9.4,8c-8.9,5.9-9.8,14.2-8,23.6c-4.7,2.3-9.1,5.5-14,6.8c-10.4,2.9-20.5,1.1-29.8-4.2
		c-1.1-0.6-1.9-1.7-2.8-2.6c0.6-5.9,2.5-12.2-1.8-17.1C166.3,203.7,160.7,199.3,155.4,194.6z M210.8,208.3c-10.1,0-19.9,0-29.5,0
		c0,2.6,0,4.9,0,7.1c10,0,19.7,0,29.5,0C210.8,212.9,210.8,210.6,210.8,208.3z"/>
	<path class="st2" d="M177.1,170.4c0-8.5-0.1-17.1-0.1-25.6c3.9,0,7.7,0,11.6,0c0,4.7-0.1,9.3,0.1,14c0.2,4.9,3.4,8.2,7.6,8.1
		c4.1-0.2,6.9-3.3,7.1-8.1c0.1-4.7,0-9.3,0-14c3.9,0,7.8,0,11.7,0c0,8.5,0,17.1-0.1,25.6c-0.6,0-1.3,0.1-1.9,0.1
		c-11.4,0-22.7,0-34.1,0C178.4,170.5,177.7,170.4,177.1,170.4z"/>
	<path class="st3" d="M157.3,156.2c-0.8,6.2-1.7,12.4-2.4,18.6c-0.4,3.5-0.3,7-0.5,10.4c-5.8-0.6-7.1-4.7-7.1-9.6
		c-0.1-10,0.1-19.9-0.1-29.9c-0.1-2.6-1.8-5-2.2-7.6c-0.3-2.2-0.6-5.2,0.6-6.7c1-1.2,4.6-1.7,6.1-0.9s2.9,4.1,2.4,5.7
		C151.8,143.6,155.2,149.7,157.3,156.2z"/>
	<path class="st3" d="M237.7,185.2c-0.1-5.6,0-11.3-0.5-16.9c-0.4-4.1-1.5-8.1-2.4-12.1c2.1-6.5,5.5-12.6,3.3-20
		c-0.5-1.6,0.9-4.9,2.4-5.7s5.1-0.3,6.1,0.9c1.2,1.5,0.9,4.5,0.6,6.7c-0.4,2.6-2.1,5.1-2.2,7.6c-0.3,10-0.1,19.9-0.1,29.9
		C244.7,181.8,243.2,183.8,237.7,185.2z"/>
	<path class="st4" d="M203.4,144.7c0,4.7,0.1,9.3,0,14c-0.1,4.8-3,7.9-7.1,8.1c-4.2,0.2-7.4-3.1-7.6-8.1c-0.2-4.6,0-9.3-0.1-14
		C193.6,144.7,198.5,144.7,203.4,144.7z"/>
	<path class="st5" d="M219.4,226.1c-1.8-9.4-0.9-17.7,8-23.6c3.4-2.3,6.3-5.3,9.4-8C237.6,205.9,229.1,221.4,219.4,226.1z"/>
	<path class="st5" d="M155.4,194.6c5.2,4.8,10.9,9.1,15.5,14.4c4.3,4.9,2.4,11.3,1.8,17.1C163,221.4,154.5,205.9,155.4,194.6z"/>
	<path class="st6" d="M162.5,140.3c-0.4,0-0.8,0-1.2,0c0.2-0.2,0.4-0.4,0.7-0.6C162.2,140,162.4,140.1,162.5,140.3z"/>
	<path class="st6" d="M230.1,139.8c0.2,0.2,0.4,0.4,0.7,0.6c-0.4,0-0.8,0-1.2-0.1C229.8,140.1,229.9,139.9,230.1,139.8z"/>
	<path class="st7" d="M213.1,170.5c0.6,0,1.3-0.1,1.9-0.1c2.8,0.1,5.6,0.2,8.5,0.2c4,0,6.3,2.1,6.4,6c0.2,4.8,0.2,9.6,0,14.5
		c-0.2,3.7-2.3,5.8-6.1,5.8c-18.5,0-36.9,0-55.4,0c-3.8,0-6-2.2-6.1-5.8c-0.3-4.8-0.2-9.6,0-14.5c0.2-3.9,2.4-6,6.4-6
		c2.8,0,5.6-0.1,8.5-0.2c0.6,0,1.3,0.1,1.9,0.1C190.4,170.5,201.7,170.5,213.1,170.5z M170,183.3L170,183.3c0,1.5-0.6,3.3,0.1,4.4
		c1.3,2,3.2,4.8,5,4.9c1.9,0.1,5-2.2,5.6-4.1c0.9-3,0.9-6.8-0.1-9.8c-0.6-1.8-3.7-3.9-5.7-3.9c-1.6,0-3.5,2.7-4.7,4.6
		C169.5,180.3,170,182,170,183.3z M222.1,183.9c0-1.5,0.6-3.4-0.1-4.4c-1.3-1.9-3.4-4.6-5.1-4.7c-1.9,0-4.8,2.4-5.5,4.3
		c-0.9,2.8-0.9,6.5,0,9.3c0.6,1.9,3.7,4.3,5.5,4.2s3.7-2.8,5.1-4.8C222.7,186.9,222.1,185.2,222.1,183.9z"/>
	<path class="st8" d="M210.8,208.3c0,2.3,0,4.6,0,7.1c-9.8,0-19.5,0-29.5,0c0-2.3,0-4.5,0-7.1C191,208.3,200.8,208.3,210.8,208.3z"
		/>
	<path class="st1" d="M213.1,170.5c-11.3,0-22.7,0-34,0C190.4,170.5,201.7,170.5,213.1,170.5z"/>
	<path class="st9" d="M170,183.3c0-1.3-0.5-3,0.1-3.9c1.3-1.8,3.1-4.6,4.7-4.6c2,0,5.1,2.1,5.7,3.9c1,3,1,6.7,0.1,9.8
		c-0.6,1.9-3.7,4.2-5.6,4.1c-1.8-0.1-3.7-2.9-5-4.9C169.4,186.6,170,184.8,170,183.3L170,183.3z"/>
	<path class="st10" d="M222.1,183.9c0,1.3,0.5,3-0.1,3.9c-1.4,1.9-3.3,4.7-5.1,4.8c-1.9,0.1-4.9-2.3-5.5-4.2c-1-2.8-1-6.4,0-9.3
		c0.6-1.9,3.6-4.3,5.5-4.3c1.8,0,3.8,2.7,5.1,4.7C222.7,180.5,222.1,182.4,222.1,183.9z"/>
</g>
</svg>
