<?xml version="1.0" encoding="utf-8"?>
<!-- Generator: Adobe Illustrator 21.0.0, SVG Export Plug-In . SVG Version: 6.00 Build 0)  -->
<svg version="1.1" id="Layer_1" xmlns="http://www.w3.org/2000/svg" xmlns:xlink="http://www.w3.org/1999/xlink" x="0px" y="0px"
	 viewBox="0 0 30 30" style="enable-background:new 0 0 30 30;" xml:space="preserve">
<style type="text/css">
	.st0{fill:#171414;}
	.st1{fill:#C9C9C8;}
	.st2{fill:#F7F0EE;}
	.st3{fill:#757575;}
	.st4{fill:#EF4024;}
	.st5{fill:#777677;}
	.st6{fill:#F7F8F8;}
	.st7{fill:#0C1011;}
	.st8{fill:#181919;}
	.st9{fill:#4AC1E5;}
	.st10{fill:#49C1E5;}
</style>
<g>
	<path class="st0" d="M17.1,29.7c-1.4,0-2.8,0-4.1,0c-0.2-0.1-0.3-0.2-0.5-0.3C6.8,27.9,3.6,23.9,3.2,18c0-0.3-0.2-0.8-0.5-1
		c-0.9-0.9-1.3-1.9-1.3-3.1c0-2.3,0-4.6,0-6.9c0-0.5-0.2-1.1-0.4-1.6C0.2,4,0.3,2.6,1.3,1.5c0.9-1,2.3-1.4,3.5-0.9
		C6.2,1.1,7,2.5,6.9,4c0,0.3,0,0.6-0.1,0.9c0,0-0.1,0.1-0.2,0.1c0.1,0,0.2,0,0.3,0c1.5-0.3,3-0.8,4.5-0.8c2.5-0.1,5-0.1,7.5,0
		c1.5,0.1,2.9,0.5,4.3,0.8c0.1,0,0.2,0,0.3,0c0,0-0.1-0.1-0.2-0.1c0-0.2,0-0.5,0-0.7c-0.2-2.3,1.4-3.9,3.7-3.6
		c1.4,0.1,2,1.1,2.7,2.2c0,0.7,0,1.3,0,2c-0.8,0.9-1,2-0.9,3.2c0.1,2.1,0,4.1,0,6.2c0,1.2-0.4,2.2-1.3,3c-0.3,0.3-0.5,0.8-0.5,1.2
		c-0.2,5.2-3.7,9.6-8.7,11C18,29.4,17.5,29.6,17.1,29.7z M13.3,6.1c-1,0-1.9,0-2.8,0C8.3,6,6.8,7.2,5.7,8.9C5.2,7.3,4.4,5.8,4.9,4
		C5,3.6,4.7,2.8,4.3,2.6C3.9,2.4,3.1,2.6,2.8,2.9C2.5,3.2,2.6,4,2.7,4.5c0.1,0.6,0.5,1.2,0.5,1.9c0.1,2.4,0,4.9,0,7.3
		c0,1.2,0.3,2.2,1.7,2.3c0.1,0.8,0.2,1.5,0.2,2.3C5,21,7,24.8,9.4,25.9c0.2,0.2,0.4,0.5,0.7,0.6c2.3,1.3,4.8,1.7,7.3,1
		c1.2-0.3,2.3-1.1,3.4-1.7c2.4-1.1,4.4-4.9,4.2-7.7c0.1-0.8,0.2-1.5,0.2-2.3c1.3-0.3,1.7-0.8,1.7-2.3c0-2.4,0-4.9,0-7.3
		c0-0.6,0.4-1.2,0.5-1.9c0.1-0.5,0.1-1.3-0.1-1.6c-0.2-0.3-1.1-0.4-1.5-0.2s-0.7,1-0.6,1.4c0.5,1.8-0.3,3.3-0.8,4.9
		c-1.1-1.7-2.6-2.9-4.8-2.8c-1,0-1.9,0-2.9,0C15.7,6.1,14.5,6.1,13.3,6.1z"/>
	<path class="st1" d="M5.2,18.2c-0.1-0.8-0.2-1.5-0.2-2.3c0-0.9,0-1.7,0.1-2.5c0.2-1.5,0.4-3,0.6-4.5C6.8,7.2,8.3,6,10.5,6.1
		c0,2.1,0,4.2,0,6.2c-0.7,0-1.4,0-2.1,0c-1,0-1.5,0.5-1.6,1.5c0,1.2,0,2.3,0,3.5c0,0.9,0.6,1.4,1.5,1.4c4.5,0,9,0,13.5,0
		c0.9,0,1.4-0.5,1.5-1.4c0-1.2,0-2.3,0-3.5c0-1-0.6-1.5-1.6-1.5c-0.7,0-1.4,0-2.1,0c0-2.1,0-4.2,0-6.2C22,6,23.4,7.2,24.6,8.9
		c0.2,1,0.5,2,0.6,2.9c0.1,1.4,0.1,2.8,0.1,4.1c-0.1,0.8-0.2,1.5-0.2,2.3c-0.8,0.7-1.5,1.4-2.3,2c-2.2,1.4-2.4,3.5-2,5.8
		c-1.1,0.6-2.2,1.3-3.4,1.7c-2.5,0.7-5,0.3-7.3-1c-0.3-0.1-0.5-0.4-0.7-0.6c0.1-1.4,0.6-3-0.4-4.2C7.9,20.5,6.5,19.4,5.2,18.2z
		 M18.7,21.6c-2.5,0-4.9,0-7.2,0c0,0.6,0,1.2,0,1.7c2.4,0,4.8,0,7.2,0C18.7,22.7,18.7,22.1,18.7,21.6z"/>
	<path class="st2" d="M10.5,12.3c0-2.1,0-4.2,0-6.2c1,0,1.9,0,2.8,0c0,1.1,0,2.3,0,3.4c0,1.2,0.8,2,1.9,2c1,0,1.7-0.8,1.7-2
		c0-1.1,0-2.3,0-3.4c1,0,1.9,0,2.9,0c0,2.1,0,4.2,0,6.2c-0.1,0-0.3,0-0.5,0c-2.8,0-5.5,0-8.3,0C10.8,12.4,10.7,12.3,10.5,12.3z"/>
	<path class="st3" d="M5.7,8.9c-0.2,1.5-0.4,3-0.6,4.5C5,14.3,5,15.1,5,15.9c-1.4-0.1-1.7-1.1-1.7-2.3c0-2.4,0-4.9,0-7.3
		c0-0.6-0.4-1.2-0.5-1.9C2.6,3.9,2.6,3.2,2.8,2.8C3.1,2.5,4,2.4,4.3,2.6S5,3.6,4.9,4C4.4,5.8,5.2,7.3,5.7,8.9z"/>
	<path class="st3" d="M25.3,15.9c0-1.4,0-2.8-0.1-4.1c-0.1-1-0.4-2-0.6-2.9c0.5-1.6,1.3-3.1,0.8-4.9c-0.1-0.4,0.2-1.2,0.6-1.4
		c0.4-0.2,1.2-0.1,1.5,0.2c0.3,0.4,0.2,1.1,0.1,1.6c-0.1,0.6-0.5,1.2-0.5,1.9c-0.1,2.4,0,4.9,0,7.3C27,15.1,26.6,15.6,25.3,15.9z"/>
	<path class="st4" d="M16.9,6.1c0,1.1,0,2.3,0,3.4c0,1.2-0.7,1.9-1.7,2c-1,0-1.8-0.8-1.9-2c0-1.1,0-2.3,0-3.4
		C14.5,6.1,15.7,6.1,16.9,6.1z"/>
	<path class="st5" d="M20.8,25.9c-0.4-2.3-0.2-4.3,2-5.8c0.8-0.6,1.5-1.3,2.3-2C25.3,21,23.2,24.8,20.8,25.9z"/>
	<path class="st5" d="M5.2,18.2c1.3,1.2,2.7,2.2,3.8,3.5c1,1.2,0.6,2.8,0.4,4.2C7.1,24.8,5,21,5.2,18.2z"/>
	<path class="st6" d="M7,5C6.9,5,6.8,5,6.7,5c0,0,0.1-0.1,0.2-0.1C6.9,4.9,6.9,5,7,5z"/>
	<path class="st6" d="M23.4,4.9c0,0,0.1,0.1,0.2,0.1c-0.1,0-0.2,0-0.3,0C23.4,5,23.4,4.9,23.4,4.9z"/>
	<path class="st7" d="M19.3,12.4c0.1,0,0.3,0,0.5,0c0.7,0,1.4,0,2.1,0c1,0,1.5,0.5,1.6,1.5c0,1.2,0,2.3,0,3.5c0,0.9-0.6,1.4-1.5,1.4
		c-4.5,0-9,0-13.5,0c-0.9,0-1.5-0.5-1.5-1.4c-0.1-1.2,0-2.3,0-3.5c0-1,0.6-1.5,1.6-1.5c0.7,0,1.4,0,2.1,0c0.1,0,0.3,0,0.5,0
		C13.8,12.4,16.5,12.4,19.3,12.4z M8.8,15.5L8.8,15.5c0,0.4-0.1,0.8,0,1.1c0.3,0.5,0.8,1.2,1.2,1.2c0.5,0,1.2-0.5,1.4-1
		c0.2-0.7,0.2-1.7,0-2.4c-0.1-0.4-0.9-1-1.4-1c-0.4,0-0.9,0.7-1.1,1.1C8.7,14.7,8.8,15.2,8.8,15.5z M21.5,15.6c0-0.4,0.1-0.8,0-1.1
		c-0.3-0.5-0.8-1.1-1.2-1.1c-0.5,0-1.2,0.6-1.3,1c-0.2,0.7-0.2,1.6,0,2.3c0.1,0.5,0.9,1,1.3,1c0.4,0,0.9-0.7,1.2-1.2
		C21.6,16.4,21.5,15.9,21.5,15.6z"/>
	<path class="st8" d="M18.7,21.6c0,0.6,0,1.1,0,1.7c-2.4,0-4.8,0-7.2,0c0-0.6,0-1.1,0-1.7C13.9,21.6,16.3,21.6,18.7,21.6z"/>
	<path class="st1" d="M19.3,12.4c-2.8,0-5.5,0-8.3,0C13.8,12.4,16.5,12.4,19.3,12.4z"/>
	<path class="st9" d="M8.8,15.5c0-0.3-0.1-0.7,0-1c0.3-0.4,0.8-1.1,1.1-1.1c0.5,0,1.2,0.5,1.4,1c0.2,0.7,0.2,1.6,0,2.4
		c-0.1,0.5-0.9,1-1.4,1c-0.4,0-0.9-0.7-1.2-1.2C8.6,16.3,8.8,15.8,8.8,15.5L8.8,15.5z"/>
	<path class="st10" d="M21.5,15.6c0,0.3,0.1,0.7,0,1c-0.3,0.5-0.8,1.1-1.2,1.2c-0.5,0-1.2-0.6-1.3-1c-0.2-0.7-0.2-1.6,0-2.3
		c0.1-0.5,0.9-1,1.3-1c0.4,0,0.9,0.7,1.2,1.1C21.6,14.8,21.5,15.3,21.5,15.6z"/>
</g>
</svg>
